<svg xmlns="http://www.w3.org/2000/svg" width="636" height="422" viewBox="0 0 636 422" font-family="ui-sans-serif,-apple-system,BlinkMacSystemFont,'Segoe UI',Helvetica,Arial,sans-serif" role="img" aria-label="Perplexity cost of INT4 quantization by weight matrix type">
<rect width="636" height="422" fill="#1a1a19"/>
<text x="24" y="28" fill="#ffffff" font-size="15" font-weight="600">Which weights tolerate INT4?</text>
<text x="24" y="47" fill="#c3c2b7" font-size="11.5">Perplexity cost when only that matrix type is quantized (INT4, group 128, asymmetric)</text>
<line x1="132.0" y1="56" x2="132.0" y2="382" stroke="#2e2e2c" stroke-width="1"/>
<text x="132.0" y="398" fill="#c3c2b7" font-size="11" text-anchor="middle">+0%</text>
<line x1="239.5" y1="56" x2="239.5" y2="382" stroke="#2e2e2c" stroke-width="1"/>
<text x="239.5" y="398" fill="#c3c2b7" font-size="11" text-anchor="middle">+5%</text>
<line x1="347.0" y1="56" x2="347.0" y2="382" stroke="#2e2e2c" stroke-width="1"/>
<text x="347.0" y="398" fill="#c3c2b7" font-size="11" text-anchor="middle">+10%</text>
<line x1="454.5" y1="56" x2="454.5" y2="382" stroke="#2e2e2c" stroke-width="1"/>
<text x="454.5" y="398" fill="#c3c2b7" font-size="11" text-anchor="middle">+15%</text>
<line x1="562.0" y1="56" x2="562.0" y2="382" stroke="#2e2e2c" stroke-width="1"/>
<text x="562.0" y="398" fill="#c3c2b7" font-size="11" text-anchor="middle">+20%</text>
<text x="120" y="81.0" fill="#c3c2b7" font-size="12" text-anchor="end" font-weight="600">all MLP</text>
<path d="M132 64 h393.6 a4 4 0 0 1 4 4 v18 a4 4 0 0 1 -4 4 h-393.6 z" fill="#3987e5" fill-opacity="0.45"/>
<text x="537.6" y="81.0" fill="#c3c2b7" font-size="11.5">+18.49%</text>
<text x="120" y="117.0" fill="#c3c2b7" font-size="12" text-anchor="end" font-weight="600">all attention</text>
<path d="M132 100 h194.5 a4 4 0 0 1 4 4 v18 a4 4 0 0 1 -4 4 h-194.5 z" fill="#3987e5" fill-opacity="0.45"/>
<text x="338.5" y="117.0" fill="#c3c2b7" font-size="11.5">+9.23%</text>
<text x="120" y="153.0" fill="#ffffff" font-size="12" text-anchor="end">down_proj</text>
<path d="M132 136 h151.9 a4 4 0 0 1 4 4 v18 a4 4 0 0 1 -4 4 h-151.9 z" fill="#3987e5" fill-opacity="1"/>
<text x="295.9" y="153.0" fill="#c3c2b7" font-size="11.5">+7.25%</text>
<text x="120" y="189.0" fill="#ffffff" font-size="12" text-anchor="end">up_proj</text>
<path d="M132 172 h124.8 a4 4 0 0 1 4 4 v18 a4 4 0 0 1 -4 4 h-124.8 z" fill="#3987e5" fill-opacity="1"/>
<text x="268.8" y="189.0" fill="#c3c2b7" font-size="11.5">+5.99%</text>
<text x="120" y="225.0" fill="#ffffff" font-size="12" text-anchor="end">v_proj</text>
<path d="M132 208 h101.2 a4 4 0 0 1 4 4 v18 a4 4 0 0 1 -4 4 h-101.2 z" fill="#3987e5" fill-opacity="1"/>
<text x="245.2" y="225.0" fill="#c3c2b7" font-size="11.5">+4.89%</text>
<text x="120" y="261.0" fill="#ffffff" font-size="12" text-anchor="end">gate_proj</text>
<path d="M132 244 h59.4 a4 4 0 0 1 4 4 v18 a4 4 0 0 1 -4 4 h-59.4 z" fill="#3987e5" fill-opacity="1"/>
<text x="203.4" y="261.0" fill="#c3c2b7" font-size="11.5">+2.95%</text>
<text x="120" y="297.0" fill="#ffffff" font-size="12" text-anchor="end">o_proj</text>
<path d="M132 280 h33.8 a4 4 0 0 1 4 4 v18 a4 4 0 0 1 -4 4 h-33.8 z" fill="#3987e5" fill-opacity="1"/>
<text x="177.8" y="297.0" fill="#c3c2b7" font-size="11.5">+1.76%</text>
<text x="120" y="333.0" fill="#ffffff" font-size="12" text-anchor="end">q_proj</text>
<path d="M132 316 h14.9 a4 4 0 0 1 4 4 v18 a4 4 0 0 1 -4 4 h-14.9 z" fill="#3987e5" fill-opacity="1"/>
<text x="158.9" y="333.0" fill="#c3c2b7" font-size="11.5">+0.88%</text>
<text x="120" y="369.0" fill="#ffffff" font-size="12" text-anchor="end">k_proj</text>
<path d="M132 352 h5.5 a4 4 0 0 1 4 4 v18 a4 4 0 0 1 -4 4 h-5.5 z" fill="#3987e5" fill-opacity="1"/>
<text x="149.5" y="369.0" fill="#c3c2b7" font-size="11.5">+0.44%</text>
<line x1="132" y1="56" x2="132" y2="382" stroke="#4a4a46" stroke-width="1"/>
<text x="24" y="412" fill="#c3c2b7" font-size="10.5">Qwen2.5-0.5B-Instruct · 3,072 held-out tokens · fp32 baseline ppl 12.789</text>
</svg>